<?xml version="1.0" encoding="UTF-8" standalone="no"?>
<!-- Created with Inkscape (http://www.inkscape.org/) -->

<svg
   width="359.56375mm"
   height="122.13288mm"
   viewBox="0 0 359.56374 122.13288"
   version="1.1"
   id="svg1"
   xml:space="preserve"
   inkscape:version="1.4.2 (ebf0e940, 2025-05-08)"
   sodipodi:docname="coral_logo.svg"
   inkscape:export-filename="../../coral/coral_logo.png"
   inkscape:export-xdpi="300"
   inkscape:export-ydpi="300"
   xmlns:inkscape="http://www.inkscape.org/namespaces/inkscape"
   xmlns:sodipodi="http://sodipodi.sourceforge.net/DTD/sodipodi-0.dtd"
   xmlns="http://www.w3.org/2000/svg"
   xmlns:svg="http://www.w3.org/2000/svg"><sodipodi:namedview
     id="namedview1"
     pagecolor="#ffffff"
     bordercolor="#000000"
     borderopacity="0.25"
     inkscape:showpageshadow="2"
     inkscape:pageopacity="0.0"
     inkscape:pagecheckerboard="0"
     inkscape:deskcolor="#d1d1d1"
     inkscape:document-units="mm"
     inkscape:zoom="0.60147409"
     inkscape:cx="675.83958"
     inkscape:cy="347.47964"
     inkscape:window-width="1512"
     inkscape:window-height="945"
     inkscape:window-x="0"
     inkscape:window-y="37"
     inkscape:window-maximized="0"
     inkscape:current-layer="layer1" /><defs
     id="defs1" /><g
     inkscape:label="Layer 1"
     inkscape:groupmode="layer"
     id="layer1"
     transform="translate(-53.632238,-637.77239)"><path
       style="fill:#5d8fa3;fill-opacity:1;stroke:#898989;stroke-width:0;stroke-dasharray:none;stroke-opacity:0"
       d="m 123.14768,757.76458 c -0.71198,-2.63029 -3.09126,-6.29483 -5.4174,-8.34382 -0.9224,-0.8125 -2.73121,-2.00148 -4.01956,-2.64218 -3.9982,-1.98828 -7.52424,-1.52207 -8.19958,1.08415 -0.52148,2.01248 -1.06619,2.19652 -6.824029,2.30554 -5.886056,0.11145 -6.190906,0.0181 -6.668556,-2.0421 -0.497382,-2.14531 -0.390781,-10.24131 0.144503,-10.9746 0.410583,-0.56245 0.994002,-0.64311 5.749877,-0.79488 5.827155,-0.18597 7.014765,-0.53708 7.014765,-2.07391 0,-1.71167 -2.34117,-2.49181 -8.83509,-2.94406 -2.428669,-0.16914 -2.985739,-0.31631 -3.627877,-0.95845 -0.734547,-0.73455 -0.758624,-0.92569 -0.758624,-6.02241 0,-7.17691 -0.458129,-6.69721 6.396088,-6.69721 4.293623,0 5.534113,0.0995 6.089253,0.48832 0.38345,0.26857 1.39526,1.81512 2.24848,3.43677 2.03217,3.86239 4.82387,6.8279 10.33525,10.97869 2.39167,1.80124 6.0139,4.80797 8.04941,6.68162 2.0355,1.87364 3.83323,3.455 3.99493,3.51412 0.524,0.19158 0.31411,-0.88255 -0.66892,-3.42329 -1.11642,-2.88553 -2.2291,-4.79298 -6.48348,-11.11456 -1.70113,-2.52771 -4.23118,-6.32163 -5.62235,-8.43095 -3.12245,-4.73434 -5.23317,-7.04053 -9.1813,-10.03163 -3.82072,-2.89456 -7.468429,-6.50815 -9.086227,-9.00123 -1.244721,-1.91816 -2.758575,-6.11127 -3.502847,-9.70228 -0.600779,-2.89867 -0.565423,-7.20809 0.06879,-8.38518 1.137425,-2.11102 3.031228,-2.97185 5.245841,-2.3845 2.751483,0.72974 3.760433,2.54364 4.534983,8.15305 0.92104,6.67026 1.99967,9.11385 5.75269,13.03248 2.28819,2.38917 4.51081,4.02346 5.27084,3.87565 0.36491,-0.071 0.65648,-0.73756 0.94799,-2.16733 0.23155,-1.13567 0.79043,-2.62309 1.24196,-3.3054 0.76199,-1.15144 0.93064,-1.24002 2.34814,-1.23337 1.61435,0.008 2.62136,0.57106 3.26308,1.82588 0.20876,0.4082 0.36295,2.44208 0.36671,4.83717 0.009,5.77253 0.37007,7.83992 1.90411,10.9039 1.35998,2.71635 6.15097,9.29944 7.32316,10.06245 0.59584,0.38784 0.75664,0.37934 1.19942,-0.0634 1.35354,-1.35354 3.24204,-10.25535 3.24989,-15.31898 0.0109,-7.01193 -2.1557,-11.17821 -10.53626,-20.26104 -5.50497,-5.96628 -6.66864,-7.52965 -8.80216,-11.8255 -2.25121,-4.53281 -2.72907,-6.46679 -2.72907,-11.04485 0,-2.9571 0.11697,-3.88167 0.61357,-4.85003 1.05935,-2.06569 2.83488,-3.29255 4.76502,-3.29255 1.21213,0 3.0666,1.16156 3.97881,2.49216 0.74906,1.09263 0.81298,1.5123 0.99191,6.51299 0.18068,5.0494 0.24854,5.48626 1.22668,7.89648 1.43364,3.53262 2.61347,5.18524 7.19353,10.07613 2.18537,2.3337 5.05992,5.77932 6.38787,7.65694 1.32795,1.87762 2.59341,3.41471 2.81212,3.41577 0.80017,0.004 3.03102,-5.51052 3.97825,-9.83367 0.23317,-1.06417 0.42728,-3.7488 0.43135,-5.96583 0.01,-5.3676 -0.59207,-7.66704 -3.45852,-13.21199 -7.39814,-14.31119 -7.64115,-14.99006 -7.62997,-21.3151 0.008,-4.68272 0.39804,-5.88197 2.53919,-7.81252 2.39864,-2.1627 4.0152,-2.30061 6.43346,-0.54883 2.1455,1.55419 2.34842,2.24188 2.46096,8.33983 0.11916,6.45665 0.49758,8.09367 3.47634,15.0387 1.14109,2.66044 2.32273,5.58785 2.62588,6.50536 0.30315,0.9175 0.74703,1.83072 0.98639,2.02937 0.68676,0.56996 2.08564,0.0346 3.43485,-1.31464 2.36429,-2.36429 3.62995,-5.88784 4.79432,-13.34717 0.79693,-5.10541 1.32742,-6.60994 2.7804,-7.88568 0.95098,-0.83497 1.37982,-0.98246 2.85662,-0.98246 1.40523,0 1.93019,0.162 2.74398,0.84676 2.52995,2.12881 2.85338,4.99518 1.28729,11.40857 -1.83188,7.50181 -3.77201,11.45592 -9.3273,19.00961 -7.07314,9.61755 -8.80757,13.66641 -11.95582,27.90974 -1.73029,7.8282 -2.75527,11.25821 -5.15026,17.2349 -2.56742,6.40701 -3.73551,11.36066 -2.57377,10.91491 0.1351,-0.0518 1.33002,-1.54539 2.65538,-3.31902 2.95468,-3.95404 6.27164,-7.16748 11.45196,-11.09455 4.51391,-3.42188 6.94545,-6.12971 8.77671,-9.774 2.41532,-4.80659 2.78347,-9.02345 1.32535,-15.18084 -1.18501,-5.00412 -0.739,-7.97261 1.39915,-9.31223 1.19141,-0.74647 2.66702,-0.61363 4.03946,0.36363 1.33183,0.94835 2.11564,3.31662 2.7091,8.18553 0.49468,4.05856 0.82501,5.0484 1.68475,5.0484 0.90111,0 3.04983,-3.71834 4.19289,-7.25576 0.35945,-1.11238 0.41979,0.15541 0.43839,9.21152 l 0.0216,10.50142 -1.20929,0.57487 c -4.05917,1.92965 -9.56412,7.43033 -10.24699,10.23902 -0.28186,1.15932 0.76029,2.20467 2.19791,2.20467 1.67936,0 4.71602,-0.89908 7.08164,-2.0967 l 2.17673,-1.10198 v 5.77252 c 0,3.17489 -0.11387,5.84289 -0.25303,5.9289 -0.66466,0.41078 -5.8561,1.18428 -9.99092,1.48859 -5.00411,0.36829 -7.97557,1.20237 -11.64533,3.26881 -3.70431,2.08589 -7.99533,5.99877 -10.32888,9.41866 -1.67269,2.45138 -3.4635,6.58734 -4.10833,9.48836 l -0.59135,2.66044 h -10.8387 -10.8387 z"
       id="path3" /><path
       style="fill:#3f6b83;fill-opacity:1;stroke:#898989;stroke-width:0;stroke-dasharray:none;stroke-opacity:0"
       d="m 73.501633,692.94627 c -0.642977,-0.71048 -0.7658,-1.73184 -0.760143,-6.3211 0.0037,-3.01054 0.194744,-5.77116 0.424516,-6.13471 0.335799,-0.53132 1.523302,-0.66101 6.052495,-0.66101 3.099099,0 5.981755,0.1425 6.405903,0.31667 0.680353,0.27938 0.770382,1.00597 0.764429,6.16941 -0.0037,3.21901 -0.194675,6.15019 -0.424365,6.51375 -0.326811,0.51728 -1.643787,0.69399 -6.056781,0.8127 -5.115332,0.13761 -5.710401,0.073 -6.406054,-0.69571 z"
       id="path6" /><path
       style="fill:#3f6b83;fill-opacity:1;stroke:#898989;stroke-width:0;stroke-dasharray:none;stroke-opacity:0"
       d="m 54.520678,693.06049 c -0.609527,-0.60953 -0.733688,-1.6876 -0.728091,-6.32193 0.0037,-3.07291 0.194781,-5.88455 0.424599,-6.2481 0.337925,-0.53458 1.561924,-0.66101 6.399072,-0.66101 4.826688,0 6.06642,0.12759 6.422607,0.66101 0.523483,0.78395 0.362966,12.09098 -0.179343,12.63312 -0.20175,0.20169 -2.895184,0.43534 -5.985412,0.51923 -4.791895,0.13008 -5.726715,0.0444 -6.353432,-0.58232 z"
       id="path7" /><path
       style="fill:#3f6a82;fill-opacity:1;stroke:#898989;stroke-width:0;stroke-dasharray:none;stroke-opacity:0"
       d="m 54.219386,711.98556 c -0.514675,-0.62359 -0.636246,-2.01699 -0.571037,-6.54499 0.07076,-4.91358 0.195541,-5.83515 0.855402,-6.31765 0.514905,-0.37651 2.352899,-0.5649 5.511151,-0.5649 4.349531,0 4.838261,0.0857 5.952469,1.04413 1.197285,1.02986 1.214184,1.11686 1.236422,6.36578 0.01476,3.48438 -0.154377,5.49924 -0.489913,5.83604 -0.310616,0.31179 -2.743412,0.60488 -6.176537,0.74412 -5.083337,0.20617 -5.731115,0.14849 -6.317957,-0.56253 z"
       id="path8" /><path
       style="fill:#3f6b83;fill-opacity:1;stroke:#898989;stroke-width:0;stroke-dasharray:none;stroke-opacity:0"
       d="m 75.380545,712.36165 c -2.577267,-0.35936 -2.645802,-0.54587 -2.645802,-7.20036 0,-5.12699 0.108128,-6.1098 0.69705,-6.33579 0.383376,-0.14712 3.022558,-0.26748 5.86485,-0.26748 7.109827,0 6.8786,-0.23508 6.8786,6.99319 0,3.65849 -0.179506,5.92174 -0.494673,6.2369 -0.52887,0.52888 -7.740393,0.93043 -10.300025,0.57354 z"
       id="path9" /><path
       style="fill:#3f6b83;fill-opacity:1;stroke:#898989;stroke-width:0;stroke-dasharray:none;stroke-opacity:0"
       d="m 75.6047,731.30848 c -2.812897,-0.33042 -2.869957,-0.47036 -2.869957,-7.03893 0,-5.21315 0.09081,-5.94624 0.771176,-6.22562 1.355953,-0.55681 9.490279,-0.3565 10.974845,0.27025 1.741511,0.73522 1.901383,1.3557 1.9088,7.4082 0.0052,4.26675 -0.09507,4.95152 -0.76516,5.22403 -0.969822,0.3944 -7.680152,0.63689 -10.019704,0.36207 z"
       id="path10" /><path
       style="fill:#3f6b83;fill-opacity:1;stroke:#898989;stroke-width:0;stroke-dasharray:none;stroke-opacity:0"
       d="m 54.314646,730.63895 c -0.640396,-0.6404 -0.748474,-12.06291 -0.117825,-12.45267 0.226039,-0.1397 2.853547,-0.37007 5.838907,-0.51194 7.332646,-0.34844 7.146591,-0.50992 7.336811,6.3679 0.205676,7.43674 0.497596,7.12552 -6.68365,7.12552 -3.958888,0 -6.016103,-0.17067 -6.374243,-0.52881 z"
       id="path11" /><path
       style="fill:#3f6b83;fill-opacity:1;stroke:#898989;stroke-width:0;stroke-dasharray:none;stroke-opacity:0"
       d="m 54.314646,749.58785 c -0.358141,-0.35814 -0.528807,-2.41535 -0.528807,-6.37424 0,-5.3282 0.07542,-5.8858 0.852374,-6.30161 0.468805,-0.2509 3.350415,-0.45618 6.403577,-0.45618 4.872442,0 5.589923,0.0943 5.867876,0.77118 0.602573,1.4674 0.367943,11.37041 -0.288123,12.16092 -0.504383,0.60775 -1.532369,0.72874 -6.191446,0.72874 -3.757605,0 -5.759774,-0.17313 -6.115451,-0.52881 z"
       id="path12" /><path
       style="fill:#3f6b83;fill-opacity:1;stroke:#898989;stroke-width:0;stroke-dasharray:none;stroke-opacity:0"
       d="m 73.26355,749.58785 c -0.734189,-0.73418 -0.734189,-11.86903 0,-12.60322 0.734187,-0.73419 11.869036,-0.73419 12.603223,0 0.73419,0.73419 0.73419,11.86904 0,12.60322 -0.734187,0.73419 -11.869036,0.73419 -12.603223,0 z"
       id="path13" /><path
       style="fill:#5d8fa3;fill-opacity:1;stroke:#898989;stroke-width:0;stroke-dasharray:none;stroke-opacity:0"
       d="m 182.21439,703.67664 c -0.007,-4.64172 -0.0691,-9.17624 -0.13871,-10.07672 -0.0695,-0.90047 -0.099,-1.23861 -0.11043,-1.42621 -0.0115,-0.1876 0.0925,-0.80156 0.23101,-1.36436 0.35901,-1.45869 0.32758,-8.08227 -0.0278,-10.89141 -0.28761,-2.2745 -0.24766,-3.68757 0.12621,-4.46394 0.39103,-0.81199 1.79536,-2.14021 2.74927,-2.60026 0.71152,-0.34316 0.98479,-0.39794 1.99279,-0.39951 1.03814,-0.002 1.24956,0.0429 1.89923,0.40021 0.93059,0.51176 2.23059,1.88692 2.67248,2.82699 1.16885,2.48663 1.51755,7.63984 0.79706,11.77889 -0.4961,2.84988 -1.05291,4.56044 -3.1681,9.73253 -0.9633,2.35548 -1.13015,3.06806 -0.7521,3.21207 0.32616,0.12425 1.5637,-0.24637 2.66623,-0.79848 1.85746,-0.93017 3.22288,-2.24952 4.53631,-4.38326 1.43715,-2.33473 3.04864,-3.64055 4.49276,-3.64055 2.34107,0 4.45626,2.86191 4.11233,5.56409 -0.4618,3.62831 -3.65005,6.85553 -9.83478,9.955 -2.08341,1.0441 -3.31936,1.55739 -9.68908,4.02391 -1.20942,0.46831 -2.27625,0.88276 -2.37073,0.92099 -0.13626,0.0551 -0.17435,-1.6761 -0.18411,-8.36998 z"
       id="path14"
       sodipodi:nodetypes="cccscssccssssssssssccc" /><path
       style="fill:#5d8fa3;fill-opacity:1;stroke:#898989;stroke-width:0;stroke-dasharray:none;stroke-opacity:0"
       d="m 181.96058,732.42961 c 0.0559,-0.66836 0.10112,-3.28582 0.10021,-5.81657 l -0.002,-4.60136 1.31172,-0.83854 c 0.72146,-0.46121 1.72405,-1.02267 2.22798,-1.24772 2.2579,-1.00829 4.6256,-0.12989 5.75811,2.13622 0.44166,0.88372 0.58574,2.67782 0.29528,3.67662 -0.81808,2.81306 -3.96637,5.65085 -8.09732,7.29872 -1.86463,0.74382 -1.71248,0.80178 -1.59447,-0.60737 z"
       id="path15" /><path
       style="fill:#3b6780;fill-opacity:1;stroke:#898989;stroke-width:0;stroke-dasharray:none;stroke-opacity:0"
       d="m 272.16368,726.68516 c -8.08281,-1.72452 -13.82322,-6.77515 -15.9922,-14.07053 -0.7543,-2.53711 -0.755,-8.20736 -10e-4,-10.72635 4.08185,-13.64244 20.13704,-19.32997 32.10551,-11.37334 7.42609,4.93685 10.55859,14.55906 7.55314,23.20124 -2.546,7.32101 -9.22128,12.28774 -17.68154,13.15592 -3.68368,0.37802 -3.27592,0.39076 -5.9836,-0.18694 z m 6.24958,-6.87233 c 6.49604,-1.05407 10.41934,-6.39022 10.11858,-13.76243 -0.10292,-2.52287 -0.261,-3.25029 -1.09079,-5.01937 -3.6724,-7.82941 -13.57506,-9.60766 -19.7352,-3.54392 -6.18215,6.08541 -4.5986,17.5994 2.92687,21.28127 2.58673,1.26557 4.68332,1.54702 7.78054,1.04445 z"
       id="path16" /><path
       style="fill:#3b6780;fill-opacity:1;stroke:#898989;stroke-width:0;stroke-dasharray:none;stroke-opacity:0"
       d="m 231.00787,726.45233 c -3.14187,-0.71921 -6.32957,-2.22727 -8.5105,-4.02619 -3.60828,-2.97628 -5.50581,-5.86 -6.68554,-10.16015 -0.86681,-3.15955 -0.71244,-8.75741 0.32204,-11.67772 2.4061,-6.7924 8.53663,-11.94361 15.51342,-13.03521 3.31255,-0.51828 7.71618,-0.12759 10.42724,0.92513 2.76842,1.07497 6.23455,3.34391 7.66977,5.02065 l 1.07779,1.25916 -2.9874,2.20148 -2.98739,2.20149 -1.84155,-1.67553 c -2.77436,-2.52423 -4.28282,-3.12688 -7.82661,-3.12688 -2.4468,0 -3.17447,0.12043 -4.52405,0.74876 -2.28132,1.06211 -3.61553,2.19979 -5.00999,4.27198 -1.56496,2.32557 -2.18455,4.50668 -2.17329,7.65048 0.0245,6.82068 3.84013,11.4946 10.22312,12.52255 3.31804,0.53436 6.55103,-0.51999 9.86075,-3.21579 l 1.65379,-1.34703 2.78685,2.10154 c 1.53278,1.15585 2.87031,2.23657 2.9723,2.4016 0.24698,0.39961 -2.99432,3.07038 -5.58233,4.59973 -1.14049,0.67396 -3.10949,1.51378 -4.37556,1.86626 -2.98962,0.83234 -7.54195,1.05702 -10.00286,0.49369 z"
       id="path17" /><path
       style="fill:#3b6780;fill-opacity:1;stroke:#898989;stroke-width:0;stroke-dasharray:none;stroke-opacity:0"
       d="m 303.62355,706.78304 v -19.48977 l 8.82411,0.009 c 10.55063,0.0113 12.63618,0.23308 15.64895,1.66383 5.08032,2.41264 7.38215,6.54684 7.08312,12.72164 -0.11004,2.27238 -0.27202,2.90943 -1.16477,4.58104 -1.15285,2.15862 -2.76321,3.70702 -5.07005,4.87494 -0.84405,0.42734 -1.56993,0.80717 -1.61308,0.84407 -0.0431,0.0369 1.71784,3.15412 3.9133,6.92714 2.19546,3.77302 3.99175,6.97195 3.99175,7.10873 0,0.30994 -8.01184,0.323 -8.4613,0.0138 -0.18027,-0.12402 -1.88581,-3.02235 -3.79009,-6.44074 l -3.46232,-6.21522 h -3.95978 -3.95978 v 6.44543 6.44544 h -3.99003 -3.99003 z m 20.34364,-1.03288 c 2.61336,-1.61515 3.63271,-3.84561 3.12859,-6.84576 -0.27957,-1.66384 -2.19643,-3.70052 -3.98347,-4.23248 -0.67468,-0.20083 -3.54014,-0.44301 -6.36769,-0.53816 l -5.14101,-0.17301 v 6.37521 6.37521 l 5.63268,-0.14114 c 5.13774,-0.12873 5.72919,-0.20078 6.7309,-0.81987 z"
       id="path18" /><path
       style="fill:#3b6780;fill-opacity:1;stroke:#898989;stroke-width:0;stroke-dasharray:none;stroke-opacity:0"
       d="m 341.52352,725.67579 c 0.0858,-0.27024 3.45738,-8.98233 7.49247,-19.3602 l 7.33653,-18.86886 4.44563,-0.0847 c 3.38144,-0.0644 4.48354,0.009 4.60404,0.30693 0.83472,2.06364 11.70937,29.94508 12.96181,33.23269 0.90033,2.36333 1.73138,4.53866 1.84679,4.83408 0.19368,0.4958 -0.11737,0.53711 -4.04324,0.53705 l -4.25306,-7e-5 -1.49717,-4.14845 -1.49717,-4.14844 -7.99871,0.0817 -7.99873,0.0818 -1.44582,3.78012 c -0.7952,2.07906 -1.49425,3.82342 -1.55343,3.87635 -0.0592,0.0529 -2.00848,0.15814 -4.33175,0.23381 -3.77145,0.12282 -4.20743,0.0849 -4.06819,-0.35378 z m 22.79456,-14.64121 c 0.88625,-0.10645 1.61136,-0.34713 1.61136,-0.53484 0,-0.42075 -4.80773,-13.07715 -5.06546,-13.33488 -0.29336,-0.29337 -0.49063,0.15845 -3.06364,7.01691 -2.02325,5.39305 -2.35576,6.52564 -1.98474,6.76035 0.50858,0.32174 6.08851,0.38241 8.50248,0.0925 z"
       id="path19" /><path
       style="fill:#3b6780;fill-opacity:1;stroke:#898989;stroke-width:0;stroke-dasharray:none;stroke-opacity:0"
       d="m 387.1073,706.78304 v -19.48977 h 3.99004 3.99003 v 15.80667 15.80666 h 9.0543 9.05431 v 3.68311 3.68311 H 400.15164 387.1073 Z"
       id="path20" /></g></svg>
